<?xml version="1.0" standalone="no"?>
<!DOCTYPE svg PUBLIC "-//W3C//DTD SVG 20010904//EN"
 "http://www.w3.org/TR/2001/REC-SVG-20010904/DTD/svg10.dtd">
<svg version="1.0" xmlns="http://www.w3.org/2000/svg"
 width="988.000000pt" height="993.000000pt" viewBox="0 0 988.000000 993.000000"
 preserveAspectRatio="xMidYMid meet">

<g transform="translate(0.000000,993.000000) scale(0.100000,-0.100000)"
fill="#FF0000" stroke="none">
<path d="M0 4965 l0 -4965 4940 0 4940 0 0 4965 0 4965 -4940 0 -4940 0 0
-4965z m3800 955 l0 -770 -770 0 -770 0 -2 760 c-2 418 -1 765 0 770 3 7 270
10 773 10 l769 0 0 -770z m1920 0 l0 -770 -770 0 -770 0 0 770 0 770 770 0
770 0 0 -770z m1920 0 l0 -770 -770 0 -770 0 0 770 0 770 770 0 770 0 0 -770z
m-182 -1341 c46 -10 105 -28 132 -40 l50 -21 0 -129 0 -128 -65 30 c-108 49
-224 72 -340 67 -160 -6 -225 -50 -225 -153 0 -70 39 -105 156 -140 242 -72
314 -97 369 -130 82 -50 101 -69 138 -144 30 -61 32 -73 31 -166 0 -122 -22
-185 -89 -262 -152 -174 -551 -215 -836 -87 l-59 27 0 128 c0 71 2 129 5 129
3 0 37 -16 76 -36 172 -86 410 -107 528 -46 49 26 81 75 81 126 0 81 -44 122
-164 157 -339 97 -427 143 -491 253 -69 121 -52 310 40 422 123 149 389 207
663 143z m-4791 -176 c64 -98 197 -303 295 -457 l178 -278 0 456 0 456 140 0
140 0 0 -675 0 -676 -147 3 -147 3 -181 287 c-100 158 -231 362 -291 455
l-109 168 -3 -458 -2 -457 -140 0 -140 0 0 675 0 675 145 0 145 0 117 -177z
m1951 56 l-3 -121 -315 -1 -315 -2 0 -145 0 -145 265 -2 c146 -2 273 -3 283
-3 15 0 17 -12 17 -120 l0 -120 -285 0 -285 0 0 -165 0 -165 335 0 335 0 0
-120 0 -120 -480 0 -480 0 0 675 0 675 465 0 466 0 -3 -121z m507 74 c9 -64
161 -818 183 -913 l18 -75 106 430 c59 237 112 456 119 488 l12 57 143 0 c141
0 144 0 148 -22 18 -81 216 -878 224 -898 8 -21 12 -11 31 70 32 138 125 592
156 763 l27 147 154 0 c137 0 154 -2 154 -17 0 -42 -218 -888 -323 -1248 l-23
-80 -156 -3 -156 -2 -41 147 c-58 212 -167 622 -182 687 -7 31 -15 56 -19 56
-3 0 -19 -53 -34 -117 -33 -136 -157 -606 -187 -705 l-20 -68 -154 0 -154 0
-20 68 c-88 296 -331 1229 -331 1270 0 9 44 12 159 12 l159 0 7 -47z"/>
<path d="M2700 5921 l0 -431 188 0 c250 0 338 18 410 84 59 53 82 161 53 248
-13 39 -84 111 -120 123 -22 7 -21 8 12 31 65 44 94 143 65 225 -19 55 -49 88
-108 117 -54 27 -59 27 -277 30 l-223 3 0 -430z m365 288 c22 -6 48 -18 57
-26 27 -24 33 -79 14 -120 -23 -48 -65 -63 -176 -63 l-90 0 0 103 c0 57 3 107
7 110 10 11 144 8 188 -4z m73 -369 c51 -31 66 -93 37 -149 -22 -44 -78 -61
-200 -61 l-105 0 0 115 0 115 118 0 c99 0 122 -3 150 -20z"/>
<path d="M4620 5919 l0 -431 223 4 c253 5 301 15 369 76 119 107 101 294 -35
363 l-40 21 37 30 c50 41 66 76 66 148 0 74 -19 120 -67 159 -60 50 -125 61
-351 61 l-202 0 0 -431z m365 291 c52 -12 85 -50 85 -98 0 -81 -50 -112 -180
-112 l-90 0 0 110 0 110 73 0 c39 0 90 -5 112 -10z m96 -388 c22 -25 29 -42
29 -75 0 -90 -49 -117 -210 -117 l-110 0 0 116 0 116 131 -4 131 -3 29 -33z"/>
<path d="M6803 6345 c-212 -59 -328 -233 -310 -463 19 -241 157 -378 403 -399
81 -7 214 16 276 48 l38 19 0 75 c0 41 -1 75 -3 75 -2 0 -32 -12 -68 -26 -45
-19 -89 -28 -150 -32 -106 -6 -173 14 -228 67 -98 94 -108 298 -20 404 82 99
257 122 401 53 l48 -23 0 83 0 83 -57 22 c-75 28 -252 36 -330 14z"/>
</g>
</svg>
